<svg width="418" height="317" viewBox="0 0 418 317" fill="none" xmlns="http://www.w3.org/2000/svg">
<g clip-path="url(#clip0_135_12281)">
<path d="M208.728 296.791H39.0793C37.7503 296.789 36.4765 296.259 35.5376 295.319C34.5986 294.378 34.0713 293.103 34.0713 291.774V53.2959C34.0829 51.9745 34.6153 50.711 35.553 49.7799C36.4907 48.8488 37.7579 48.3253 39.0793 48.323H208.728C210.059 48.323 211.335 48.8516 212.276 49.7924C213.216 50.7332 213.745 52.0093 213.745 53.3398V291.774C213.745 293.105 213.216 294.381 212.276 295.322C211.335 296.263 210.059 296.791 208.728 296.791ZM39.0793 48.4987C37.8085 48.501 36.5906 49.0075 35.6929 49.9069C34.7951 50.8063 34.2909 52.0251 34.2909 53.2959V291.774C34.2909 293.045 34.7951 294.264 35.6929 295.163C36.5906 296.063 37.8085 296.569 39.0793 296.571H208.728C210 296.569 211.219 296.063 212.118 295.164C213.017 294.265 213.523 293.046 213.525 291.774V53.2959C213.523 52.0243 213.017 50.8055 212.118 49.9063C211.219 49.0072 210 48.501 208.728 48.4987H39.0793Z" fill="#EBEBEB"/>
<path d="M398.778 296.791H229.121C227.791 296.789 226.516 296.259 225.576 295.319C224.635 294.379 224.106 293.104 224.104 291.774V53.2959C224.118 51.9737 224.652 50.7102 225.591 49.7794C226.53 48.8485 227.798 48.3252 229.121 48.323H398.778C400.098 48.3276 401.363 48.8521 402.299 49.783C403.235 50.7139 403.766 51.976 403.777 53.2959V291.774C403.777 293.102 403.251 294.375 402.314 295.315C401.377 296.256 400.106 296.786 398.778 296.791ZM229.121 48.4987C227.849 48.501 226.63 49.0072 225.731 49.9063C224.832 50.8055 224.326 52.0243 224.323 53.2959V291.774C224.326 293.046 224.832 294.265 225.731 295.164C226.63 296.063 227.849 296.569 229.121 296.571H398.778C400.05 296.569 401.269 296.063 402.168 295.164C403.067 294.265 403.573 293.046 403.575 291.774V53.2959C403.573 52.0243 403.067 50.8055 402.168 49.9063C401.269 49.0072 400.05 48.501 398.778 48.4987H229.121Z" fill="#EBEBEB"/>
<path d="M131.57 213.166H111.889V296.598H131.57V213.166Z" fill="#E6E6E6"/>
<path d="M164.376 184.717H144.696V296.598H164.376V184.717Z" fill="#E0E0E0"/>
<path d="M197.183 213.166H177.503V296.598H197.183V213.166Z" fill="#EBEBEB"/>
<path d="M65.9557 241.606H46.275V296.589H65.9557V241.606Z" fill="#F0F0F0"/>
<path d="M98.7627 227.874H79.082V296.589H98.7627V227.874Z" fill="#EBEBEB"/>
<path d="M229.99 241.606H210.31V296.589H229.99V241.606Z" fill="#F5F5F5"/>
<path d="M394.016 156.268H374.335V296.598H394.016V156.268Z" fill="#E0E0E0"/>
<path d="M262.797 213.166H243.117V296.598H262.797V213.166Z" fill="#F0F0F0"/>
<path d="M361.209 184.717H341.529V296.598H361.209V184.717Z" fill="#E6E6E6"/>
<path d="M328.411 199.425H308.73V296.589H328.411V199.425Z" fill="#EBEBEB"/>
<path d="M295.604 227.874H275.924V296.589H295.604V227.874Z" fill="#F0F0F0"/>
<path d="M73.5308 189.766C75.273 182.385 70.7015 174.988 63.32 173.246C55.9386 171.504 48.5424 176.076 46.8002 183.457C45.0581 190.838 49.6296 198.235 57.011 199.977C64.3925 201.719 71.7887 197.147 73.5308 189.766Z" fill="#E0E0E0"/>
<path d="M71.5265 196.325C76.8893 190.963 76.8893 182.268 71.5264 176.905C66.1636 171.542 57.4686 171.542 52.1057 176.905C46.7429 182.268 46.7429 190.963 52.1057 196.325C57.4686 201.688 66.1636 201.688 71.5265 196.325Z" fill="#E6E6E6"/>
<path d="M61.8175 196.894C67.4947 196.894 72.0971 192.292 72.0971 186.615C72.0971 180.937 67.4947 176.335 61.8175 176.335C56.1402 176.335 51.5378 180.937 51.5378 186.615C51.5378 192.292 56.1402 196.894 61.8175 196.894Z" fill="#F0F0F0"/>
<path d="M66.3335 188.802C66.7288 191.078 65.1649 192.598 62.3534 192.835L62.3095 194.715H60.5962L60.6489 192.835C59.1775 192.724 57.752 192.273 56.4844 191.517L57.2575 189.4C58.2889 190.087 59.4698 190.518 60.7017 190.656L60.7807 187.774C59.1026 187.291 57.2663 186.659 56.8885 184.594C56.4932 182.318 58.0834 180.781 60.9564 180.579V178.698H62.7049V180.596C63.866 180.696 64.9954 181.027 66.026 181.572L65.3055 183.627C64.4811 183.142 63.5606 182.842 62.6082 182.749L62.5379 185.754C64.1897 186.263 65.982 186.843 66.3335 188.802ZM60.8247 185.288L60.8949 182.828C59.9548 183.012 59.498 183.54 59.5946 184.19C59.6913 184.84 60.1657 185.024 60.8247 185.288ZM63.6362 189.25C63.5571 188.75 63.109 188.442 62.4676 188.223L62.4149 190.56C63.3111 190.375 63.7592 189.901 63.6362 189.25Z" fill="white"/>
<path d="M387.128 70.7097H315.619C311.984 70.7097 309.038 73.656 309.038 77.2904V104.316C309.038 107.951 311.984 110.897 315.619 110.897H387.128C390.762 110.897 393.709 107.951 393.709 104.316V77.2904C393.709 73.656 390.762 70.7097 387.128 70.7097Z" fill="#F0F0F0"/>
<path d="M331.021 76.1833H325.064C324.714 76.1833 324.431 76.4666 324.431 76.8159V105.353C324.431 105.702 324.714 105.985 325.064 105.985H331.021C331.37 105.985 331.653 105.702 331.653 105.353V76.8159C331.653 76.4666 331.37 76.1833 331.021 76.1833Z" fill="white"/>
<path d="M379.783 76.1833H373.826C373.477 76.1833 373.193 76.4666 373.193 76.8159V105.353C373.193 105.702 373.477 105.985 373.826 105.985H379.783C380.132 105.985 380.415 105.702 380.415 105.353V76.8159C380.415 76.4666 380.132 76.1833 379.783 76.1833Z" fill="white"/>
<path d="M356.245 86.0149H350.288C349.939 86.0149 349.656 86.2981 349.656 86.6475V105.362C349.656 105.711 349.939 105.994 350.288 105.994H356.245C356.595 105.994 356.878 105.711 356.878 105.362V86.6475C356.878 86.2981 356.595 86.0149 356.245 86.0149Z" fill="white"/>
<path d="M343.743 90.8033H337.786C337.436 90.8033 337.153 91.0866 337.153 91.4359V105.353C337.153 105.702 337.436 105.986 337.786 105.986H343.743C344.092 105.986 344.375 105.702 344.375 105.353V91.4359C344.375 91.0866 344.092 90.8033 343.743 90.8033Z" fill="white"/>
<path d="M368.018 102.471H362.062C361.712 102.471 361.429 102.754 361.429 103.104V105.353C361.429 105.702 361.712 105.985 362.062 105.985H368.018C368.368 105.985 368.651 105.702 368.651 105.353V103.104C368.651 102.754 368.368 102.471 368.018 102.471Z" fill="white"/>
<path d="M376.91 76.0077C376.831 75.9686 376.744 75.9462 376.656 75.942C376.568 75.9377 376.48 75.9517 376.398 75.9831C376.315 76.0144 376.24 76.0624 376.177 76.1241C376.114 76.1858 376.064 76.2598 376.031 76.3415L365.488 99.1851C365.443 99.295 365.368 99.3901 365.272 99.46C365.176 99.5299 365.062 99.5717 364.944 99.5808C364.825 99.5899 364.707 99.5659 364.601 99.5116C364.496 99.4572 364.407 99.3746 364.346 99.273L354.576 84.4071C354.485 84.2646 354.342 84.1634 354.178 84.1256C354.013 84.0878 353.841 84.1163 353.697 84.205L341.397 89.1252C341.298 89.1857 341.184 89.2177 341.067 89.2177C340.951 89.2177 340.837 89.1857 340.738 89.1252L327.339 75.6299C327.262 75.5884 327.178 75.5632 327.091 75.5559C327.004 75.5486 326.917 75.5593 326.835 75.5874C326.752 75.6154 326.676 75.6602 326.612 75.7189C326.548 75.7776 326.496 75.849 326.461 75.9286V75.9989C326.396 76.1446 326.389 76.3089 326.439 76.4599C326.49 76.6109 326.594 76.7379 326.733 76.816L340.852 90.7242C340.951 90.7867 341.065 90.8199 341.181 90.8199C341.298 90.8199 341.412 90.7867 341.511 90.7242L353.267 86.1028C353.337 86.0577 353.416 86.0272 353.499 86.0129C353.582 85.9987 353.666 86.001 353.748 86.0198C353.83 86.0386 353.907 86.0735 353.975 86.1225C354.044 86.1714 354.101 86.2334 354.145 86.3048L364.539 102.181C364.6 102.283 364.688 102.366 364.793 102.421C364.898 102.476 365.016 102.501 365.134 102.493C365.253 102.485 365.367 102.444 365.463 102.375C365.56 102.306 365.635 102.211 365.681 102.102L377.191 76.8423C377.257 76.6933 377.265 76.5247 377.213 76.3701C377.161 76.2155 377.053 76.0861 376.91 76.0077Z" fill="#E0E0E0"/>
<path d="M194.846 109.904C202.761 109.904 209.176 103.488 209.176 95.5741C209.176 87.6599 202.761 81.2441 194.846 81.2441C186.932 81.2441 180.516 87.6599 180.516 95.5741C180.516 103.488 186.932 109.904 194.846 109.904Z" fill="#E0E0E0"/>
<path opacity="0.8" d="M194.679 107.075C201.031 107.075 206.18 101.926 206.18 95.5741C206.18 89.2224 201.031 84.0732 194.679 84.0732C188.328 84.0732 183.178 89.2224 183.178 95.5741C183.178 101.926 188.328 107.075 194.679 107.075Z" fill="white"/>
<path d="M194.644 97.7004C195.29 97.7004 195.813 97.1772 195.813 96.5318C195.813 95.8865 195.29 95.3633 194.644 95.3633C193.999 95.3633 193.476 95.8865 193.476 96.5318C193.476 97.1772 193.999 97.7004 194.644 97.7004Z" fill="#E0E0E0"/>
<path d="M194.512 96.9623L189.566 92.3057L190.049 91.7961L194.53 96.0134L202.56 88.9143L203.026 89.4415L194.512 96.9623Z" fill="#E0E0E0"/>
<path d="M249.337 213.236H191.332V365.875H249.337V213.236Z" fill="url(#paint0_linear_135_12281)"/>
<path opacity="0.5" d="M249.522 213.236H206.268V365.875H249.522V213.236Z" fill="black"/>
<path d="M325.116 265.276H267.111V365.867H325.116V265.276Z" fill="url(#paint1_linear_135_12281)"/>
<path opacity="0.3" d="M325.116 265.038H281.863V365.875H325.116V265.038Z" fill="black"/>
<path d="M173.189 240.455H115.184V365.867H173.189V240.455Z" fill="url(#paint2_linear_135_12281)"/>
<path opacity="0.4" d="M173.189 240.148H129.935V365.867H173.189V240.148Z" fill="black"/>
<path d="M143.448 339.052C150.096 339.052 155.485 333.663 155.485 327.015C155.485 320.367 150.096 314.978 143.448 314.978C136.8 314.978 131.411 320.367 131.411 327.015C131.411 333.663 136.8 339.052 143.448 339.052Z" fill="url(#paint3_linear_135_12281)"/>
<path d="M144.889 339.052C151.537 339.052 156.926 333.663 156.926 327.015C156.926 320.367 151.537 314.978 144.889 314.978C138.241 314.978 132.852 320.367 132.852 327.015C132.852 333.663 138.241 339.052 144.889 339.052Z" fill="url(#paint4_linear_135_12281)"/>
<path opacity="0.5" d="M144.889 339.052C151.537 339.052 156.926 333.663 156.926 327.015C156.926 320.367 151.537 314.978 144.889 314.978C138.241 314.978 132.852 320.367 132.852 327.015C132.852 333.663 138.241 339.052 144.889 339.052Z" fill="white"/>
<path d="M151.264 333.388C154.785 329.868 154.785 324.16 151.264 320.64C147.744 317.12 142.036 317.12 138.516 320.64C134.996 324.16 134.996 329.868 138.516 333.388C142.036 336.909 147.744 336.909 151.264 333.388Z" fill="url(#paint5_linear_135_12281)"/>
<path d="M241.992 319.749C242.071 321.62 236.158 323.386 228.813 323.694C221.468 324.001 215.397 322.754 215.318 320.882C215.239 319.011 221.152 317.245 228.497 316.937C235.842 316.63 241.913 317.878 241.992 319.749Z" fill="url(#paint6_linear_135_12281)"/>
<path opacity="0.4" d="M241.992 319.749C242.071 321.62 236.158 323.386 228.813 323.694C221.468 324.001 215.397 322.754 215.318 320.882C215.239 319.011 221.152 317.245 228.497 316.937C235.842 316.63 241.913 317.878 241.992 319.749Z" fill="white"/>
<path d="M244.944 318.053C245.023 319.925 239.11 321.691 231.765 322.007C224.42 322.323 218.349 321.058 218.27 319.187C218.191 317.315 224.104 315.549 231.449 315.242C238.794 314.934 244.865 316.138 244.944 318.053Z" fill="url(#paint7_linear_135_12281)"/>
<path d="M244.777 314.639L218.074 315.772L218.218 319.152L244.921 318.019L244.777 314.639Z" fill="url(#paint8_linear_135_12281)"/>
<path d="M244.795 314.627C244.874 316.498 238.961 318.264 231.616 318.58C224.271 318.897 218.199 317.631 218.12 315.76C218.041 313.889 223.954 312.123 231.299 311.815C238.645 311.508 244.751 312.782 244.795 314.627Z" fill="url(#paint9_linear_135_12281)"/>
<path opacity="0.4" d="M244.795 314.627C244.874 316.498 238.961 318.264 231.616 318.58C224.271 318.897 218.199 317.631 218.12 315.76C218.041 313.889 223.954 312.123 231.299 311.815C238.645 311.508 244.751 312.782 244.795 314.627Z" fill="white"/>
<path d="M243.099 314.539C243.096 314.656 243.056 314.77 242.985 314.864C242.106 313.766 237.204 313.107 231.378 313.37C225.553 313.634 220.712 314.679 219.957 315.848C219.87 315.76 219.818 315.645 219.807 315.523C219.755 314.258 224.921 312.992 231.361 312.72C237.801 312.448 243.037 313.309 243.099 314.539Z" fill="url(#paint10_linear_135_12281)"/>
<path opacity="0.4" d="M243.099 314.539C243.096 314.656 243.056 314.77 242.985 314.864C242.106 313.766 237.204 313.107 231.378 313.37C225.553 313.634 220.712 314.679 219.957 315.848C219.87 315.76 219.818 315.645 219.807 315.523C219.755 314.258 224.921 312.992 231.361 312.72C237.801 312.448 243.037 313.309 243.099 314.539Z" fill="url(#paint11_linear_135_12281)"/>
<path opacity="0.4" d="M242.994 314.899C242.194 316.076 237.388 317.131 231.572 317.377C225.755 317.623 220.835 316.981 219.965 315.883C220.739 314.715 225.553 313.651 231.387 313.405C237.221 313.159 242.115 313.801 242.994 314.899Z" fill="url(#paint12_linear_135_12281)"/>
<path d="M240.656 313.66C240.736 315.532 234.823 317.298 227.477 317.614C220.132 317.93 214 316.674 214 314.802C214 312.931 219.834 311.165 227.179 310.857C234.524 310.55 240.577 311.806 240.656 313.66Z" fill="url(#paint13_linear_135_12281)"/>
<path d="M240.52 310.282L213.817 311.415L213.961 314.795L240.664 313.662L240.52 310.282Z" fill="url(#paint14_linear_135_12281)"/>
<path d="M240.516 310.286C240.595 312.158 234.682 313.924 227.337 314.24C219.992 314.556 213.921 313.291 213.842 311.42C213.763 309.548 219.676 307.782 227.021 307.475C234.366 307.167 240.437 308.389 240.516 310.286Z" fill="url(#paint15_linear_135_12281)"/>
<path opacity="0.4" d="M240.516 310.286C240.595 312.158 234.682 313.924 227.337 314.24C219.992 314.556 213.921 313.291 213.842 311.42C213.763 309.548 219.676 307.782 227.021 307.475C234.366 307.167 240.437 308.389 240.516 310.286Z" fill="white"/>
<path d="M238.811 310.234C238.816 310.353 238.775 310.469 238.697 310.559C237.819 309.46 232.925 308.801 227.091 309.065C221.257 309.329 216.433 310.374 215.669 311.543C215.585 311.454 215.536 311.339 215.528 311.218C215.476 309.952 220.642 308.687 227.082 308.415C233.522 308.143 238.759 308.968 238.811 310.234Z" fill="url(#paint16_linear_135_12281)"/>
<path opacity="0.4" d="M238.811 310.234C238.816 310.353 238.775 310.469 238.697 310.559C237.819 309.46 232.925 308.801 227.091 309.065C221.257 309.329 216.433 310.374 215.669 311.543C215.585 311.454 215.536 311.339 215.528 311.218C215.476 309.952 220.642 308.687 227.082 308.415C233.522 308.143 238.759 308.968 238.811 310.234Z" fill="url(#paint17_linear_135_12281)"/>
<path opacity="0.4" d="M238.697 310.559C237.898 311.736 233.092 312.79 227.275 313.036C221.459 313.282 216.548 312.641 215.669 311.543C216.451 310.374 221.257 309.32 227.091 309.065C232.925 308.81 237.801 309.46 238.697 310.559Z" fill="url(#paint18_linear_135_12281)"/>
<path d="M243.468 308.547C243.547 310.418 237.634 312.184 230.289 312.5C222.944 312.817 216.882 311.552 216.803 309.68C216.723 307.809 222.628 306.043 229.982 305.735C237.335 305.428 243.38 306.684 243.468 308.547Z" fill="url(#paint19_linear_135_12281)"/>
<path d="M243.315 305.177L216.612 306.311L216.755 309.69L243.458 308.557L243.315 305.177Z" fill="url(#paint20_linear_135_12281)"/>
<path d="M243.319 305.164C243.398 307.035 237.485 308.801 230.14 309.118C222.795 309.434 216.723 308.169 216.644 306.297C216.565 304.426 222.478 302.669 229.823 302.353C237.168 302.036 243.24 303.301 243.319 305.164Z" fill="url(#paint21_linear_135_12281)"/>
<path opacity="0.4" d="M243.319 305.164C243.398 307.035 237.485 308.801 230.14 309.118C222.795 309.434 216.723 308.169 216.644 306.297C216.565 304.426 222.478 302.669 229.823 302.353C237.168 302.036 243.24 303.301 243.319 305.164Z" fill="white"/>
<path d="M241.614 305.111C241.618 305.233 241.577 305.352 241.5 305.445C240.621 304.347 235.727 303.688 229.894 303.943C224.06 304.198 219.236 305.252 218.472 306.421C218.392 306.33 218.342 306.216 218.331 306.095C218.278 304.83 223.445 303.565 229.885 303.293C236.325 303.02 241.561 303.846 241.614 305.111Z" fill="url(#paint22_linear_135_12281)"/>
<path opacity="0.4" d="M241.614 305.111C241.618 305.233 241.577 305.352 241.5 305.445C240.621 304.347 235.727 303.688 229.894 303.943C224.06 304.198 219.236 305.252 218.472 306.421C218.392 306.33 218.342 306.216 218.331 306.095C218.278 304.83 223.445 303.565 229.885 303.293C236.325 303.02 241.561 303.846 241.614 305.111Z" fill="url(#paint23_linear_135_12281)"/>
<path opacity="0.4" d="M241.5 305.445C240.709 306.614 235.894 307.668 230.078 307.914C224.262 308.16 219.35 307.519 218.472 306.42C219.254 305.252 224.06 304.198 229.894 303.943C235.728 303.688 240.613 304.347 241.5 305.445Z" fill="url(#paint24_linear_135_12281)"/>
<path d="M232.34 304.719C238.565 302.385 241.719 295.447 239.386 289.223C237.052 282.998 230.114 279.843 223.89 282.177C217.665 284.51 214.51 291.448 216.844 297.673C219.178 303.898 226.115 307.052 232.34 304.719Z" fill="url(#paint25_linear_135_12281)"/>
<path d="M238.608 301.844C242.917 296.781 242.306 289.185 237.243 284.876C232.181 280.567 224.584 281.179 220.275 286.241C215.967 291.304 216.578 298.9 221.641 303.209C226.703 307.518 234.3 306.906 238.608 301.844Z" fill="url(#paint26_linear_135_12281)"/>
<path opacity="0.4" d="M238.608 301.844C242.917 296.781 242.306 289.185 237.243 284.876C232.181 280.567 224.584 281.179 220.275 286.241C215.967 291.304 216.578 298.9 221.641 303.209C226.703 307.518 234.3 306.906 238.608 301.844Z" fill="white"/>
<path d="M237.643 297.749C236.905 299.37 235.703 300.735 234.189 301.673C232.675 302.611 230.917 303.078 229.138 303.017C227.358 302.956 225.636 302.369 224.19 301.329C222.744 300.29 221.639 298.845 221.014 297.178C220.389 295.51 220.272 293.695 220.679 291.961C221.086 290.227 221.997 288.653 223.298 287.437C224.599 286.221 226.232 285.418 227.989 285.13C229.746 284.842 231.549 285.081 233.171 285.817C235.345 286.808 237.038 288.62 237.876 290.858C238.715 293.095 238.631 295.573 237.643 297.749Z" fill="url(#paint27_linear_135_12281)"/>
<path opacity="0.3" d="M233.619 296.694C233.48 296.146 233.173 295.654 232.74 295.289C233.2 295.269 233.645 295.12 234.023 294.858C234.407 294.594 234.711 294.229 234.902 293.804C235.067 293.461 235.144 293.081 235.126 292.701C235.107 292.32 234.994 291.95 234.796 291.625C234.419 291.031 233.896 290.544 233.276 290.21L233.584 289.534L232.547 289.068L232.266 289.692L231.229 289.217L231.51 288.594L230.473 288.119L230.192 288.752L227.943 287.724L223.726 297.011L225.966 298.039L225.668 298.698L226.704 299.163L227.003 298.504L228.04 298.979L227.741 299.638L228.778 300.103L229.094 299.418C229.876 299.769 230.739 299.9 231.589 299.796C231.98 299.723 232.346 299.553 232.653 299.301C232.96 299.049 233.199 298.724 233.346 298.355C233.623 297.848 233.719 297.263 233.619 296.694ZM229.366 290.316L231.501 291.291C231.933 291.453 232.308 291.737 232.582 292.108C232.671 292.26 232.718 292.433 232.718 292.609C232.718 292.785 232.671 292.958 232.582 293.11C232.522 293.276 232.417 293.423 232.279 293.535C232.141 293.646 231.976 293.718 231.8 293.742C231.339 293.79 230.873 293.698 230.465 293.479L228.33 292.503L229.366 290.316ZM230.526 297.81C230.038 297.843 229.55 297.736 229.12 297.503L226.616 296.369L227.653 294.067L230.166 295.21C231.299 295.728 231.695 296.378 231.352 297.142C231.291 297.323 231.182 297.484 231.036 297.608C230.891 297.732 230.715 297.814 230.526 297.845V297.81Z" fill="white"/>
<path d="M117.292 139.697V144.969C120.613 145.234 123.764 146.541 126.298 148.703L130.05 144.951C126.507 141.819 122.014 139.969 117.292 139.697Z" fill="url(#paint28_linear_135_12281)"/>
<path d="M114.718 176.678C110.962 176.377 107.436 174.748 104.771 172.083C102.107 169.419 100.478 165.893 100.177 162.137H94.9056C95.2154 167.294 97.4013 172.159 101.051 175.815C104.701 179.471 109.562 181.665 114.718 181.984V176.678Z" fill="url(#paint29_linear_135_12281)"/>
<path d="M100.195 159.571C100.499 155.819 102.126 152.297 104.786 149.634C107.446 146.971 110.966 145.339 114.718 145.031V139.759C109.556 140.071 104.688 142.263 101.031 145.919C97.3744 149.576 95.183 154.445 94.8705 159.606L100.195 159.571Z" fill="url(#paint30_linear_135_12281)"/>
<path opacity="0.2" d="M100.195 159.571C100.499 155.819 102.126 152.297 104.786 149.634C107.446 146.971 110.966 145.339 114.718 145.031V139.759C109.556 140.071 104.688 142.263 101.031 145.919C97.3744 149.576 95.183 154.445 94.8705 159.606L100.195 159.571Z" fill="black"/>
<path d="M131.86 146.823L128.108 150.574C130.002 152.8 131.246 155.505 131.7 158.392C132.155 161.278 131.804 164.235 130.685 166.935C129.566 169.634 127.724 171.973 125.361 173.692C122.998 175.411 120.205 176.444 117.292 176.678V181.949C121.25 181.707 125.061 180.359 128.29 178.056C131.519 175.754 134.036 172.591 135.554 168.928C137.072 165.264 137.531 161.248 136.878 157.337C136.225 153.426 134.486 149.776 131.86 146.805V146.823Z" fill="url(#paint31_linear_135_12281)"/>
<g opacity="0.8">
<path d="M117.292 139.697V144.969C120.613 145.234 123.764 146.541 126.298 148.703L130.05 144.951C126.507 141.819 122.014 139.969 117.292 139.697Z" fill="white"/>
</g>
<g opacity="0.6">
<path d="M114.718 176.678C110.962 176.377 107.436 174.748 104.771 172.083C102.107 169.419 100.478 165.893 100.177 162.137H94.9056C95.2154 167.294 97.4013 172.159 101.051 175.815C104.701 179.471 109.562 181.665 114.718 181.984V176.678Z" fill="white"/>
</g>
<g opacity="0.7">
<path d="M100.195 159.571C100.499 155.819 102.126 152.297 104.786 149.634C107.446 146.971 110.966 145.339 114.718 145.031V139.759C109.556 140.071 104.688 142.263 101.031 145.919C97.3744 149.576 95.183 154.445 94.8705 159.606L100.195 159.571Z" fill="white"/>
</g>
<path opacity="0.5" d="M131.86 146.823L128.108 150.574C130.002 152.8 131.246 155.505 131.7 158.392C132.155 161.278 131.804 164.235 130.685 166.935C129.566 169.634 127.724 171.973 125.361 173.692C122.998 175.411 120.205 176.444 117.292 176.678V181.949C121.25 181.707 125.061 180.359 128.29 178.056C131.519 175.754 134.036 172.591 135.554 168.928C137.072 165.264 137.531 161.248 136.878 157.337C136.225 153.426 134.486 149.776 131.86 146.805V146.823Z" fill="white"/>
<path d="M154.519 134.127L161.24 143.247L199.969 127.169L237.722 140.594L271.926 118.479L274.377 121.73L282.504 108.428L264.291 107.005L267.085 110.686L232.855 132.598L195.663 119.402L154.519 134.127Z" fill="url(#paint32_linear_135_12281)"/>
<g opacity="0.5">
<path d="M154.519 134.127L161.24 143.247L199.969 127.169L237.722 140.594L271.926 118.479L274.377 121.73L282.504 108.428L264.291 107.005L267.085 110.686L232.855 132.598L195.663 119.402L154.519 134.127Z" fill="white"/>
</g>
<path d="M313.282 139.803C311.596 139.803 309.948 140.303 308.547 141.239C307.145 142.176 306.053 143.507 305.408 145.064C304.763 146.621 304.594 148.335 304.923 149.988C305.252 151.641 306.063 153.16 307.255 154.352C308.447 155.543 309.966 156.355 311.619 156.684C313.272 157.013 314.986 156.844 316.543 156.199C318.1 155.554 319.431 154.462 320.368 153.06C321.304 151.659 321.804 150.011 321.804 148.325C321.804 146.065 320.906 143.897 319.308 142.299C317.71 140.701 315.542 139.803 313.282 139.803ZM313.282 152.586C312.438 152.588 311.614 152.34 310.912 151.873C310.21 151.405 309.662 150.741 309.338 149.962C309.015 149.184 308.929 148.327 309.092 147.499C309.256 146.672 309.661 145.912 310.257 145.315C310.852 144.718 311.611 144.312 312.438 144.147C313.265 143.981 314.122 144.065 314.901 144.388C315.681 144.71 316.347 145.256 316.815 145.957C317.284 146.658 317.534 147.482 317.534 148.325C317.532 149.453 317.083 150.534 316.286 151.333C315.49 152.131 314.409 152.582 313.282 152.586Z" fill="url(#paint33_linear_135_12281)"/>
<path d="M334.763 164.808C333.077 164.806 331.429 165.304 330.026 166.24C328.624 167.175 327.53 168.506 326.883 170.063C326.237 171.62 326.067 173.334 326.395 174.988C326.723 176.641 327.534 178.161 328.725 179.353C329.917 180.546 331.435 181.359 333.089 181.688C334.742 182.018 336.456 181.85 338.014 181.205C339.572 180.56 340.903 179.468 341.84 178.066C342.777 176.664 343.277 175.016 343.277 173.33C343.277 171.072 342.38 168.905 340.784 167.307C339.188 165.709 337.022 164.81 334.763 164.808ZM334.763 177.583C333.92 177.584 333.095 177.336 332.393 176.868C331.691 176.401 331.143 175.735 330.819 174.956C330.496 174.177 330.411 173.32 330.575 172.492C330.739 171.665 331.145 170.905 331.741 170.308C332.338 169.712 333.098 169.306 333.925 169.142C334.753 168.978 335.61 169.063 336.389 169.386C337.168 169.71 337.834 170.257 338.301 170.96C338.769 171.662 339.018 172.487 339.016 173.33C339.013 174.457 338.565 175.538 337.768 176.335C336.971 177.132 335.89 177.58 334.763 177.583Z" fill="url(#paint34_linear_135_12281)"/>
<path d="M316.471 181.853H310.804L330.493 139.803H336.16L316.471 181.853Z" fill="url(#paint35_linear_135_12281)"/>
<g opacity="0.5">
<path d="M313.282 139.803C311.596 139.803 309.948 140.303 308.547 141.239C307.145 142.176 306.053 143.507 305.408 145.064C304.763 146.621 304.594 148.335 304.923 149.988C305.252 151.641 306.063 153.16 307.255 154.352C308.447 155.543 309.966 156.355 311.619 156.684C313.272 157.013 314.986 156.844 316.543 156.199C318.1 155.554 319.431 154.462 320.368 153.06C321.304 151.659 321.804 150.011 321.804 148.325C321.804 146.065 320.906 143.897 319.308 142.299C317.71 140.701 315.542 139.803 313.282 139.803ZM313.282 152.586C312.438 152.588 311.614 152.34 310.912 151.873C310.21 151.405 309.662 150.741 309.338 149.962C309.015 149.184 308.929 148.327 309.092 147.499C309.256 146.672 309.661 145.912 310.257 145.315C310.852 144.718 311.611 144.312 312.438 144.147C313.265 143.981 314.122 144.065 314.901 144.388C315.681 144.71 316.347 145.256 316.815 145.957C317.284 146.658 317.534 147.482 317.534 148.325C317.532 149.453 317.083 150.534 316.286 151.333C315.49 152.131 314.409 152.582 313.282 152.586Z" fill="white"/>
<path d="M334.763 164.808C333.077 164.806 331.429 165.304 330.026 166.24C328.624 167.175 327.53 168.506 326.883 170.063C326.237 171.62 326.067 173.334 326.395 174.988C326.723 176.641 327.534 178.161 328.725 179.353C329.917 180.546 331.435 181.359 333.089 181.688C334.742 182.018 336.456 181.85 338.014 181.205C339.572 180.56 340.903 179.468 341.84 178.066C342.777 176.664 343.277 175.016 343.277 173.33C343.277 171.072 342.38 168.905 340.784 167.307C339.188 165.709 337.022 164.81 334.763 164.808ZM334.763 177.583C333.92 177.584 333.095 177.336 332.393 176.868C331.691 176.401 331.143 175.735 330.819 174.956C330.496 174.177 330.411 173.32 330.575 172.492C330.739 171.665 331.145 170.905 331.741 170.308C332.338 169.712 333.098 169.306 333.925 169.142C334.753 168.978 335.61 169.063 336.389 169.386C337.168 169.71 337.834 170.257 338.301 170.96C338.769 171.662 339.018 172.487 339.016 173.33C339.013 174.457 338.565 175.538 337.768 176.335C336.971 177.132 335.89 177.58 334.763 177.583Z" fill="white"/>
<path d="M316.471 181.853H310.804L330.493 139.803H336.16L316.471 181.853Z" fill="white"/>
</g>
<path d="M215.757 143.572C215.985 144.661 216.205 145.61 216.46 146.603C216.715 147.596 216.987 148.527 217.277 149.529C217.848 151.453 218.507 153.368 219.236 155.31C220.694 159.343 222.689 163.162 225.167 166.662C225.897 167.639 226.708 168.553 227.592 169.394C228.583 170.345 229.711 171.141 230.939 171.758C233.294 172.903 235.909 173.409 238.521 173.225C240.809 173.067 243.055 172.539 245.172 171.661C246.17 171.254 247.144 170.79 248.089 170.273C248.562 170.005 249.02 169.712 249.46 169.394C249.899 169.069 250.339 168.797 250.831 168.436L248.485 164.298L247.255 164.623L245.963 164.931C245.085 165.124 244.206 165.291 243.327 165.405C241.743 165.648 240.132 165.681 238.539 165.502C237.263 165.372 236.038 164.932 234.972 164.219C234.512 163.889 234.088 163.512 233.707 163.095C233.24 162.538 232.812 161.951 232.424 161.337C231.533 159.937 230.754 158.468 230.096 156.944C229.375 155.354 228.743 153.676 228.145 151.954C227.548 150.232 227.012 148.439 226.476 146.682L225.72 144.046C225.483 143.168 225.219 142.237 225.035 141.472L215.757 143.572Z" fill="#FF8B7B"/>
<path d="M214.957 138.248C218.946 133.178 224.991 135.032 228.391 143.098C230.27 147.388 231.764 151.836 232.854 156.391L218.674 161.372C214.949 153.755 210.863 143.44 214.957 138.248Z" fill="url(#paint36_linear_135_12281)"/>
<path opacity="0.1" d="M214.957 138.248C218.946 133.178 224.991 135.032 228.391 143.098C230.27 147.388 231.764 151.836 232.854 156.391L218.674 161.372C214.949 153.755 210.863 143.44 214.957 138.248Z" fill="black"/>
<path opacity="0.3" d="M220.879 146.726C219.719 145.936 217.321 150.548 216.214 155.978C216.996 157.876 217.83 159.694 218.665 161.381L227.196 158.385C225.799 153.281 223.506 148.483 220.879 146.726Z" fill="black"/>
<path d="M249.205 162.216L252.307 160.52L253.396 167.444C253.396 167.444 248.212 170.571 246.728 167.988L246.886 166.231C246.969 165.437 247.219 164.668 247.618 163.977C248.018 163.285 248.559 162.685 249.205 162.216Z" fill="#FF8B7B"/>
<path d="M256.199 160.177L258.914 165.748L253.37 167.452L252.28 160.52L256.199 160.177Z" fill="#FF8B7B"/>
<path d="M214.878 133.714L207.639 132.669L198.598 133.459C197.226 133.579 195.931 134.146 194.912 135.073C193.893 136 193.206 137.235 192.957 138.59C191.944 145.192 191.342 151.85 191.156 158.526C190.84 166.038 191.675 177.126 192.913 187.142L223.12 183.487C223.41 157.129 225.404 148.967 225.65 141.982C225.699 140.609 225.295 139.259 224.502 138.138C223.708 137.017 222.568 136.188 221.257 135.779L214.878 133.714Z" fill="url(#paint37_linear_135_12281)"/>
<path d="M224.033 264.415L230.465 266.198L236.22 251.095L229.806 249.32L224.033 264.415Z" fill="#FF8B7B"/>
<path d="M233.329 264.195C232.821 263.534 232.085 263.086 231.264 262.939L224.648 261.656C224.501 261.622 224.346 261.645 224.214 261.72C224.082 261.795 223.983 261.916 223.937 262.06L221.907 268.096C221.794 268.427 221.816 268.789 221.967 269.105C222.118 269.42 222.387 269.664 222.716 269.783H222.786C225.228 270.749 226.88 270.415 230.693 271.154C233.039 271.61 237.977 273.174 241.236 273.042C244.496 272.911 244.531 269.642 243.143 269.396C238.223 268.632 234.454 265.68 233.329 264.195Z" fill="#263238"/>
<g opacity="0.2">
<path d="M236.22 251.104L233.153 259.134L226.827 257.105L229.797 249.32L236.22 251.104Z" fill="black"/>
</g>
<path d="M252.254 206.568C252.013 208.959 251.578 211.328 250.954 213.649C249.258 220.204 246.359 226.881 243.925 233.391C239.216 246.254 235.086 257.43 235.086 257.43L226.3 254.39C226.3 254.39 234.208 217.172 239.541 213.368H206.839C206.228 213.368 205.617 213.327 205.012 213.245C210.644 212.516 219.421 209.045 227.565 205.575C234.761 202.5 241.491 199.425 245.137 198.265C249.601 200.171 252.597 202.816 252.254 206.568Z" fill="#263238"/>
<path opacity="0.1" d="M252.254 206.568C252.013 208.959 251.578 211.328 250.954 213.649C249.258 220.204 246.359 226.881 243.925 233.391C239.216 246.254 235.086 257.43 235.086 257.43L226.3 254.39C226.3 254.39 234.208 217.172 239.541 213.368H206.839C206.228 213.368 205.617 213.327 205.012 213.245C210.644 212.516 219.421 209.045 227.565 205.575C234.761 202.5 241.491 199.425 245.137 198.265C249.601 200.171 252.597 202.816 252.254 206.568Z" fill="black"/>
<path opacity="0.6" d="M245.146 198.3C241.491 199.486 234.761 202.535 227.574 205.61C219.43 209.08 210.652 212.551 205.021 213.28C195.532 212.015 191.965 200.707 201.884 187.669C208.324 187.669 214.799 193.819 214.799 193.819C214.799 193.819 234.269 193.722 245.146 198.3Z" fill="black"/>
<path d="M268.816 251.438H276.003L268.473 233.391L263.588 241.677L268.816 251.438Z" fill="#FF8B7B"/>
<path d="M275.414 249.733L266.971 247.809C266.827 247.77 266.675 247.788 266.544 247.858C266.413 247.928 266.314 248.046 266.268 248.187L263.913 254.68C263.818 255.01 263.856 255.364 264.021 255.665C264.186 255.966 264.463 256.19 264.792 256.288H264.836C267.796 256.911 269.229 257.061 272.963 257.895C275.247 258.423 281.028 259.934 284.182 260.654C287.337 261.375 288.162 258.282 286.906 257.693C281.283 255.058 278.225 252.598 276.591 250.471C276.298 250.094 275.881 249.832 275.414 249.733Z" fill="#263238"/>
<g opacity="0.2">
<path d="M268.473 233.391L271.68 241.079L265.205 244.69L263.588 241.677L268.473 233.391Z" fill="black"/>
</g>
<path d="M271.776 238.347L263.869 243.135C263.869 243.135 257.271 229.279 250.962 213.649C251.587 211.328 252.022 208.959 252.263 206.568C252.605 202.816 249.627 200.171 245.164 198.309C241.509 199.495 234.779 202.544 227.592 205.619C219.447 209.089 210.67 212.56 205.038 213.289C204.391 213.376 203.74 213.423 203.088 213.429C192.263 213.429 188.529 203.941 192.896 187.845C199.336 187.845 210.362 187.151 210.362 187.151C210.362 187.151 231.642 182.037 246.956 183.777C250.59 184.205 253.994 185.776 256.678 188.263C259.363 190.749 261.188 194.024 261.892 197.615C265.837 217.155 271.776 238.347 271.776 238.347Z" fill="#263238"/>
<path d="M271.776 238.347L263.869 243.135C263.869 243.135 257.271 229.279 250.962 213.649C251.587 211.328 252.022 208.959 252.263 206.568C252.605 202.816 249.627 200.171 245.164 198.309C241.509 199.495 234.779 202.544 227.592 205.619C219.447 209.089 210.67 212.56 205.038 213.289C204.391 213.376 203.74 213.423 203.088 213.429C192.263 213.429 188.529 203.941 192.896 187.845C199.336 187.845 210.362 187.151 210.362 187.151C210.362 187.151 231.642 182.037 246.956 183.777C250.59 184.205 253.994 185.776 256.678 188.263C259.363 190.749 261.188 194.024 261.892 197.615C265.837 217.155 271.776 238.347 271.776 238.347Z" fill="#263238"/>
<path d="M214.878 133.714L207.639 132.669L198.598 133.459C197.226 133.579 195.931 134.146 194.912 135.073C193.893 136 193.206 137.235 192.957 138.59C191.944 145.192 191.342 151.85 191.156 158.526C190.84 166.038 191.675 177.126 192.913 187.142L223.12 183.487C223.41 157.129 225.404 148.967 225.65 141.982C225.699 140.609 225.295 139.259 224.502 138.138C223.708 137.017 222.568 136.188 221.257 135.779L214.878 133.714Z" fill="url(#paint38_linear_135_12281)"/>
<path d="M192.843 185.472L192.061 187.924C191.964 188.108 192.175 188.31 192.5 188.319L222.654 186.518C222.9 186.518 223.111 186.404 223.128 186.246L223.453 183.786C223.453 183.61 223.26 183.46 222.997 183.452L193.326 185.27C193.235 185.258 193.142 185.27 193.057 185.306C192.972 185.341 192.898 185.399 192.843 185.472Z" fill="#263238"/>
<path opacity="0.1" d="M192.843 185.472L192.061 187.924C191.964 188.108 192.175 188.31 192.5 188.319L222.654 186.518C222.9 186.518 223.111 186.404 223.128 186.246L223.453 183.786C223.453 183.61 223.26 183.46 222.997 183.452L193.326 185.27C193.235 185.258 193.142 185.27 193.057 185.306C192.972 185.341 192.898 185.399 192.843 185.472Z" fill="black"/>
<path opacity="0.3" d="M195.901 136.13C201.919 135.076 201.62 148.756 198.879 158.763C198.088 161.662 194.662 160.45 193.502 159.694C189.698 157.269 188.415 140.506 195.901 136.13Z" fill="black"/>
<path d="M195.171 156.391C195.4 162.304 193.52 165.405 196.674 167.382C199.828 169.359 218.463 175.535 218.92 174.762C218.041 176.186 217.163 177.398 216.284 178.839C210.913 178.031 205.539 177.284 200.162 176.599C196.234 176.107 189.9 175.096 186.825 172.601C184.031 170.352 184.531 160.476 185.006 153.36C187.475 151.892 195.171 156.391 195.171 156.391Z" fill="#FF8B7B"/>
<path d="M193.564 133.723C199.714 131.904 202.095 136.86 200.215 145.373C199.267 149.965 197.905 154.461 196.147 158.807L183.196 154.721C184.602 146.366 187.22 135.586 193.564 133.723Z" fill="url(#paint39_linear_135_12281)"/>
<path d="M202.578 133.679C202.414 134.992 202.749 136.318 203.518 137.395C204.275 138.458 205.16 139.423 206.154 140.268C207.375 141.384 208.834 142.588 210.485 142.368C212.005 142.166 212.875 141.402 213.49 139.592C214.791 141.692 214.852 142.737 216.284 142.869C216.748 142.844 217.201 142.719 217.612 142.502C218.023 142.285 218.383 141.982 218.665 141.613C219.193 141.179 219.629 140.645 219.95 140.042C220.272 139.439 220.471 138.778 220.537 138.098C220.879 135.463 218.727 132.985 216.214 132.045C213.656 131.188 210.998 130.663 208.306 130.481C205.961 130.235 203.008 130.964 202.578 133.679Z" fill="url(#paint40_linear_135_12281)"/>
<path opacity="0.3" d="M202.578 133.679C202.414 134.992 202.749 136.318 203.518 137.395C204.275 138.458 205.16 139.423 206.154 140.268C207.375 141.384 208.834 142.588 210.485 142.368C212.005 142.166 212.875 141.402 213.49 139.592C214.791 141.692 214.852 142.737 216.284 142.869C216.748 142.844 217.201 142.719 217.612 142.502C218.023 142.285 218.383 141.982 218.665 141.613C219.193 141.179 219.629 140.645 219.95 140.042C220.272 139.439 220.471 138.778 220.537 138.098C220.879 135.463 218.727 132.985 216.214 132.045C213.656 131.188 210.998 130.663 208.306 130.481C205.961 130.235 203.008 130.964 202.578 133.679Z" fill="black"/>
<path d="M208.869 120.931L212.146 124.717L216.6 129.866C216.202 130.418 215.904 131.037 215.722 131.693C215.419 132.39 215.377 133.172 215.605 133.897C215.832 134.622 216.314 135.24 216.961 135.638C217.637 135.955 217.989 139.513 213.508 139.153C212.23 139.131 210.971 138.845 209.808 138.315C208.646 137.784 207.605 137.02 206.751 136.069C205.934 134.971 205.715 134.382 206.558 133.178C208.948 129.778 209.141 124.849 208.869 120.931Z" fill="#FF8B7B"/>
<path opacity="0.2" d="M215.529 128.592L212.717 124.875C212.717 124.981 212.647 125.104 212.612 125.227C212.474 125.751 212.38 126.286 212.33 126.826C212.163 128.671 213.894 131.034 215.581 132.045L215.713 131.676C215.921 131.051 216.217 130.46 216.592 129.919C216.613 129.888 216.64 129.861 216.671 129.839L215.529 128.592Z" fill="black"/>
<path d="M209.176 113.963C208.667 120.069 208.104 123.628 210.723 127.089C214.685 132.361 222.575 130.481 224.877 124.612C226.95 119.34 227.381 110.229 221.775 107.04C219.802 105.95 217.476 105.689 215.309 106.313C213.143 106.937 211.313 108.397 210.222 110.37C209.607 111.474 209.25 112.702 209.176 113.963Z" fill="#FF8B7B"/>
<path d="M208.28 119.367L210.916 120.5C211.795 120.131 211.997 119.068 211.935 118.101C211.671 114.376 218.393 109.825 218.393 109.825C218.393 109.825 211.285 107.488 209.15 107.136C208.403 107.013 205.715 108.964 205.302 109.772C204.749 110.958 204.539 112.275 204.694 113.574C204.849 114.873 205.364 116.104 206.18 117.126C206.806 117.939 207.509 118.69 208.28 119.367Z" fill="#263238"/>
<path d="M206.031 118.268C206.162 119.632 206.787 120.901 207.788 121.835C209.088 123.03 210.679 121.73 210.872 119.99C211.03 118.444 210.248 116.186 208.667 115.668C207.085 115.149 205.881 116.564 206.031 118.268Z" fill="#FF8B7B"/>
<path d="M218.34 117.627C218.243 118.128 218.428 118.593 218.753 118.664C219.078 118.734 219.386 118.391 219.517 117.891C219.649 117.39 219.421 116.924 219.096 116.854C218.771 116.784 218.393 117.117 218.34 117.627Z" fill="#263238"/>
<path d="M223.972 118.866C223.875 119.375 224.06 119.841 224.394 119.911C224.728 119.982 225.053 119.63 225.149 119.138C225.246 118.646 225.053 118.172 224.728 118.101C224.402 118.031 224.069 118.365 223.972 118.866Z" fill="#263238"/>
<path d="M222.092 118.839C222.268 120.274 222.628 121.679 223.164 123.021C222.823 123.144 222.46 123.19 222.1 123.155C221.74 123.12 221.392 123.005 221.081 122.819L222.092 118.839Z" fill="#FF5652"/>
<path d="M219.658 125.64C219.098 125.446 218.584 125.139 218.147 124.738C217.711 124.338 217.361 123.852 217.119 123.312C217.104 123.275 217.104 123.235 217.119 123.199C217.134 123.163 217.162 123.134 217.198 123.118C217.236 123.106 217.278 123.108 217.315 123.124C217.353 123.14 217.383 123.169 217.4 123.206C217.671 123.789 218.072 124.302 218.574 124.704C219.075 125.107 219.663 125.388 220.291 125.526C220.31 125.528 220.329 125.534 220.347 125.543C220.364 125.553 220.379 125.566 220.391 125.581C220.404 125.597 220.413 125.615 220.418 125.634C220.423 125.653 220.425 125.673 220.422 125.693C220.416 125.733 220.394 125.769 220.361 125.794C220.328 125.818 220.287 125.829 220.247 125.824C220.045 125.781 219.848 125.72 219.658 125.64Z" fill="#263238"/>
<path d="M217.567 115.606C217.517 115.596 217.474 115.568 217.444 115.527C217.388 115.471 217.357 115.395 217.357 115.316C217.357 115.237 217.388 115.161 217.444 115.105C217.796 114.789 218.221 114.565 218.681 114.453C219.141 114.341 219.621 114.345 220.08 114.464C220.155 114.486 220.219 114.538 220.257 114.607C220.294 114.676 220.303 114.757 220.282 114.833C220.256 114.907 220.201 114.968 220.131 115.003C220.06 115.038 219.978 115.043 219.904 115.018C219.545 114.935 219.171 114.939 218.814 115.029C218.456 115.119 218.125 115.293 217.848 115.536C217.812 115.573 217.767 115.599 217.718 115.612C217.668 115.624 217.616 115.622 217.567 115.606Z" fill="#263238"/>
<path d="M224.613 115.615C224.6 115.566 224.6 115.515 224.613 115.466C224.623 115.427 224.641 115.392 224.665 115.36C224.689 115.329 224.719 115.303 224.754 115.283C224.788 115.264 224.826 115.251 224.865 115.246C224.904 115.241 224.944 115.244 224.982 115.255C225.436 115.363 225.857 115.579 226.208 115.885C226.56 116.191 226.833 116.578 227.003 117.012C227.025 117.089 227.016 117.171 226.979 117.242C226.941 117.312 226.877 117.365 226.801 117.39C226.725 117.412 226.644 117.403 226.575 117.365C226.506 117.327 226.454 117.263 226.432 117.188C226.296 116.843 226.079 116.535 225.799 116.292C225.519 116.049 225.185 115.877 224.824 115.791C224.777 115.781 224.733 115.76 224.697 115.729C224.66 115.699 224.631 115.659 224.613 115.615Z" fill="#263238"/>
<path d="M226.476 184.84L265.029 184.954C265.701 184.943 266.346 184.687 266.843 184.234C267.339 183.781 267.654 183.162 267.726 182.494L269.483 162.972C269.517 162.657 269.483 162.338 269.385 162.037C269.286 161.736 269.125 161.459 268.912 161.225C268.698 160.991 268.438 160.805 268.147 160.679C267.856 160.553 267.542 160.49 267.225 160.494L228.672 160.38C228 160.393 227.354 160.651 226.858 161.105C226.362 161.56 226.048 162.179 225.975 162.849L224.218 182.362C224.184 182.677 224.218 182.996 224.317 183.297C224.415 183.598 224.576 183.875 224.79 184.109C225.003 184.343 225.264 184.529 225.554 184.655C225.845 184.781 226.159 184.844 226.476 184.84Z" fill="url(#paint41_linear_135_12281)"/>
<path opacity="0.3" d="M226.476 184.84L265.029 184.954C265.701 184.943 266.346 184.687 266.843 184.234C267.339 183.781 267.654 183.162 267.726 182.494L269.483 162.972C269.517 162.657 269.483 162.338 269.385 162.037C269.286 161.736 269.125 161.459 268.912 161.225C268.698 160.991 268.438 160.805 268.147 160.679C267.856 160.553 267.542 160.49 267.225 160.494L228.672 160.38C228 160.393 227.354 160.651 226.858 161.105C226.362 161.56 226.048 162.179 225.975 162.849L224.218 182.362C224.184 182.677 224.218 182.996 224.317 183.297C224.415 183.598 224.576 183.875 224.79 184.109C225.003 184.343 225.264 184.529 225.554 184.655C225.845 184.781 226.159 184.844 226.476 184.84Z" fill="black"/>
<path d="M227.609 184.761L266.162 184.875C266.836 184.864 267.482 184.606 267.979 184.152C268.476 183.697 268.789 183.076 268.86 182.406L270.617 162.892C270.652 162.578 270.619 162.26 270.522 161.958C270.424 161.657 270.264 161.381 270.051 161.146C269.838 160.912 269.578 160.725 269.288 160.599C268.998 160.473 268.684 160.41 268.368 160.415L229.815 160.301C229.142 160.316 228.498 160.574 228.002 161.028C227.506 161.482 227.192 162.101 227.117 162.769L225.36 182.283C225.325 182.598 225.358 182.916 225.455 183.217C225.553 183.518 225.713 183.795 225.926 184.029C226.138 184.264 226.399 184.45 226.689 184.576C226.979 184.702 227.293 184.765 227.609 184.761Z" fill="url(#paint42_linear_135_12281)"/>
<path opacity="0.2" d="M227.609 184.761L266.162 184.875C266.836 184.864 267.482 184.606 267.979 184.152C268.476 183.697 268.789 183.076 268.86 182.406L270.617 162.892C270.652 162.578 270.619 162.26 270.522 161.958C270.424 161.657 270.264 161.381 270.051 161.146C269.838 160.912 269.578 160.725 269.288 160.599C268.998 160.473 268.684 160.41 268.368 160.415L229.815 160.301C229.142 160.316 228.498 160.574 228.002 161.028C227.506 161.482 227.192 162.101 227.117 162.769L225.36 182.283C225.325 182.598 225.358 182.916 225.455 183.217C225.553 183.518 225.713 183.795 225.926 184.029C226.138 184.264 226.399 184.45 226.689 184.576C226.979 184.702 227.293 184.765 227.609 184.761Z" fill="white"/>
<path d="M250.699 172.865C250.644 173.4 250.431 173.908 250.088 174.323C249.745 174.738 249.286 175.042 248.77 175.196C248.254 175.351 247.704 175.349 247.189 175.19C246.674 175.032 246.218 174.725 245.878 174.307C245.538 173.89 245.329 173.381 245.278 172.844C245.227 172.308 245.336 171.769 245.592 171.295C245.847 170.821 246.238 170.433 246.713 170.181C247.189 169.928 247.729 169.823 248.265 169.877C248.621 169.914 248.967 170.02 249.282 170.189C249.597 170.359 249.875 170.589 250.101 170.867C250.327 171.144 250.496 171.463 250.599 171.806C250.701 172.149 250.735 172.509 250.699 172.865Z" fill="white"/>
<path d="M266.716 184.849C266.716 186.017 266.022 186.966 265.178 186.966L225.386 186.808C224.956 186.808 224.604 186.333 224.604 185.754C224.604 185.174 224.956 184.682 225.386 184.682L266.716 184.849Z" fill="url(#paint43_linear_135_12281)"/>
<path opacity="0.3" d="M266.716 184.849C266.716 186.017 266.022 186.966 265.178 186.966L225.386 186.808C224.956 186.808 224.604 186.333 224.604 185.754C224.604 185.174 224.956 184.682 225.386 184.682L266.716 184.849Z" fill="black"/>
<path d="M225.14 186.817H205.987C205.498 186.817 205.028 186.622 204.682 186.276C204.336 185.93 204.142 185.461 204.142 184.972C204.141 184.934 204.147 184.896 204.161 184.861C204.174 184.826 204.195 184.794 204.221 184.767C204.247 184.74 204.279 184.719 204.313 184.704C204.348 184.689 204.385 184.682 204.423 184.682H225.14C225.281 184.682 225.42 184.709 225.549 184.763C225.679 184.817 225.796 184.896 225.895 184.996C225.994 185.096 226.072 185.214 226.125 185.344C226.178 185.474 226.205 185.613 226.204 185.754C226.204 186.035 226.092 186.306 225.892 186.505C225.693 186.705 225.422 186.817 225.14 186.817Z" fill="url(#paint44_linear_135_12281)"/>
<path d="M214.79 172.03L217.971 171.099L217.681 178.927C217.681 178.927 210.775 180.552 210.345 177.372L211.223 175.658C211.988 174.182 213.042 172.46 214.79 172.03Z" fill="#FF8B7B"/>
<path d="M222.733 173.269L221.793 177.662L217.681 178.918L217.971 171.099L222.733 173.269Z" fill="#FF8B7B"/>
<path d="M223.99 253.748L237.169 258.22L239.866 252.773L225.29 248.143L223.99 253.748Z" fill="url(#paint45_linear_135_12281)"/>
<path d="M261.848 244.216L273.999 237.433L271.768 231.783L258.562 239.498L261.848 244.216Z" fill="url(#paint46_linear_135_12281)"/>
<path d="M226.906 113.902C228.716 113.796 229.454 111.661 229.235 110.748C228.967 109.542 228.234 108.491 227.196 107.822C227.776 106.065 226.994 103.921 224.815 102.436C224.023 101.978 223.137 101.705 222.224 101.638C221.311 101.571 220.395 101.712 219.544 102.049C219.544 100.459 216.618 99.4136 214.738 101.399C213.963 100.92 213.054 100.705 212.146 100.786C211.238 100.866 210.382 101.239 209.703 101.847C209.467 102.054 209.29 102.32 209.191 102.618C209.092 102.917 209.075 103.236 209.141 103.543C208.394 103.552 207.662 103.763 207.025 104.153C206.387 104.543 205.866 105.097 205.517 105.758C205.168 106.42 205.004 107.163 205.041 107.909C205.079 108.656 205.318 109.378 205.732 110.001C206.321 110.879 207.718 110.879 208.772 110.651C209.064 111.152 209.455 111.587 209.922 111.93C210.389 112.273 210.922 112.517 211.487 112.645C214.957 113.796 219.728 112.716 220.572 112.645C221.415 112.505 222.28 112.677 223.005 113.129C222.846 113.35 222.64 113.533 222.401 113.666C222.163 113.798 221.898 113.875 221.626 113.893C221.104 113.946 220.576 113.919 220.062 113.814C221.237 114.589 222.666 114.882 224.051 114.631C224.645 114.332 225.255 114.065 225.878 113.831C226.3 113.77 226.95 113.963 226.906 113.902Z" fill="#263238"/>
</g>
<defs>
<linearGradient id="paint0_linear_135_12281" x1="191.332" y1="289.556" x2="249.337" y2="289.556" gradientUnits="userSpaceOnUse">
<stop stop-color="#165B00"/>
<stop offset="1" stop-color="#175C01" stop-opacity="0.7"/>
</linearGradient>
<linearGradient id="paint1_linear_135_12281" x1="267.111" y1="315.571" x2="325.116" y2="315.571" gradientUnits="userSpaceOnUse">
<stop stop-color="#165B00"/>
<stop offset="1" stop-color="#175C01" stop-opacity="0.7"/>
</linearGradient>
<linearGradient id="paint2_linear_135_12281" x1="115.184" y1="303.161" x2="173.189" y2="303.161" gradientUnits="userSpaceOnUse">
<stop stop-color="#165B00"/>
<stop offset="1" stop-color="#175C01" stop-opacity="0.7"/>
</linearGradient>
<linearGradient id="paint3_linear_135_12281" x1="131.411" y1="327.015" x2="155.485" y2="327.015" gradientUnits="userSpaceOnUse">
<stop stop-color="#165B00"/>
<stop offset="1" stop-color="#175C01" stop-opacity="0.7"/>
</linearGradient>
<linearGradient id="paint4_linear_135_12281" x1="132.852" y1="327.015" x2="156.926" y2="327.015" gradientUnits="userSpaceOnUse">
<stop stop-color="#165B00"/>
<stop offset="1" stop-color="#175C01" stop-opacity="0.7"/>
</linearGradient>
<linearGradient id="paint5_linear_135_12281" x1="138.516" y1="333.388" x2="151.264" y2="320.64" gradientUnits="userSpaceOnUse">
<stop stop-color="#165B00"/>
<stop offset="1" stop-color="#175C01" stop-opacity="0.7"/>
</linearGradient>
<linearGradient id="paint6_linear_135_12281" x1="215.317" y1="320.316" x2="241.993" y2="320.316" gradientUnits="userSpaceOnUse">
<stop stop-color="#165B00"/>
<stop offset="1" stop-color="#175C01" stop-opacity="0.7"/>
</linearGradient>
<linearGradient id="paint7_linear_135_12281" x1="218.269" y1="318.625" x2="244.945" y2="318.625" gradientUnits="userSpaceOnUse">
<stop stop-color="#165B00"/>
<stop offset="1" stop-color="#175C01" stop-opacity="0.7"/>
</linearGradient>
<linearGradient id="paint8_linear_135_12281" x1="218.146" y1="317.462" x2="244.849" y2="316.329" gradientUnits="userSpaceOnUse">
<stop stop-color="#165B00"/>
<stop offset="1" stop-color="#175C01" stop-opacity="0.7"/>
</linearGradient>
<linearGradient id="paint9_linear_135_12281" x1="218.12" y1="315.199" x2="244.795" y2="315.199" gradientUnits="userSpaceOnUse">
<stop stop-color="#165B00"/>
<stop offset="1" stop-color="#175C01" stop-opacity="0.7"/>
</linearGradient>
<linearGradient id="paint10_linear_135_12281" x1="219.807" y1="314.259" x2="243.099" y2="314.259" gradientUnits="userSpaceOnUse">
<stop stop-color="#165B00"/>
<stop offset="1" stop-color="#175C01" stop-opacity="0.7"/>
</linearGradient>
<linearGradient id="paint11_linear_135_12281" x1="219.807" y1="314.259" x2="243.099" y2="314.259" gradientUnits="userSpaceOnUse">
<stop stop-color="#165B00"/>
<stop offset="1" stop-color="#175C01" stop-opacity="0.7"/>
</linearGradient>
<linearGradient id="paint12_linear_135_12281" x1="219.965" y1="315.391" x2="242.994" y2="315.391" gradientUnits="userSpaceOnUse">
<stop stop-color="#165B00"/>
<stop offset="1" stop-color="#175C01" stop-opacity="0.7"/>
</linearGradient>
<linearGradient id="paint13_linear_135_12281" x1="214" y1="314.237" x2="240.657" y2="314.237" gradientUnits="userSpaceOnUse">
<stop stop-color="#165B00"/>
<stop offset="1" stop-color="#175C01" stop-opacity="0.7"/>
</linearGradient>
<linearGradient id="paint14_linear_135_12281" x1="213.889" y1="313.105" x2="240.592" y2="311.972" gradientUnits="userSpaceOnUse">
<stop stop-color="#165B00"/>
<stop offset="1" stop-color="#175C01" stop-opacity="0.7"/>
</linearGradient>
<linearGradient id="paint15_linear_135_12281" x1="213.841" y1="310.858" x2="240.517" y2="310.858" gradientUnits="userSpaceOnUse">
<stop stop-color="#165B00"/>
<stop offset="1" stop-color="#175C01" stop-opacity="0.7"/>
</linearGradient>
<linearGradient id="paint16_linear_135_12281" x1="215.528" y1="309.953" x2="238.812" y2="309.953" gradientUnits="userSpaceOnUse">
<stop stop-color="#165B00"/>
<stop offset="1" stop-color="#175C01" stop-opacity="0.7"/>
</linearGradient>
<linearGradient id="paint17_linear_135_12281" x1="215.528" y1="309.953" x2="238.812" y2="309.953" gradientUnits="userSpaceOnUse">
<stop stop-color="#165B00"/>
<stop offset="1" stop-color="#175C01" stop-opacity="0.7"/>
</linearGradient>
<linearGradient id="paint18_linear_135_12281" x1="215.669" y1="311.049" x2="238.697" y2="311.049" gradientUnits="userSpaceOnUse">
<stop stop-color="#165B00"/>
<stop offset="1" stop-color="#175C01" stop-opacity="0.7"/>
</linearGradient>
<linearGradient id="paint19_linear_135_12281" x1="216.802" y1="309.119" x2="243.469" y2="309.119" gradientUnits="userSpaceOnUse">
<stop stop-color="#165B00"/>
<stop offset="1" stop-color="#175C01" stop-opacity="0.7"/>
</linearGradient>
<linearGradient id="paint20_linear_135_12281" x1="216.683" y1="308" x2="243.386" y2="306.867" gradientUnits="userSpaceOnUse">
<stop stop-color="#165B00"/>
<stop offset="1" stop-color="#175C01" stop-opacity="0.7"/>
</linearGradient>
<linearGradient id="paint21_linear_135_12281" x1="216.644" y1="305.735" x2="243.319" y2="305.735" gradientUnits="userSpaceOnUse">
<stop stop-color="#165B00"/>
<stop offset="1" stop-color="#175C01" stop-opacity="0.7"/>
</linearGradient>
<linearGradient id="paint22_linear_135_12281" x1="218.331" y1="304.831" x2="241.614" y2="304.831" gradientUnits="userSpaceOnUse">
<stop stop-color="#165B00"/>
<stop offset="1" stop-color="#175C01" stop-opacity="0.7"/>
</linearGradient>
<linearGradient id="paint23_linear_135_12281" x1="218.331" y1="304.831" x2="241.614" y2="304.831" gradientUnits="userSpaceOnUse">
<stop stop-color="#165B00"/>
<stop offset="1" stop-color="#175C01" stop-opacity="0.7"/>
</linearGradient>
<linearGradient id="paint24_linear_135_12281" x1="218.472" y1="305.927" x2="241.5" y2="305.927" gradientUnits="userSpaceOnUse">
<stop stop-color="#165B00"/>
<stop offset="1" stop-color="#175C01" stop-opacity="0.7"/>
</linearGradient>
<linearGradient id="paint25_linear_135_12281" x1="216.844" y1="297.673" x2="239.386" y2="289.223" gradientUnits="userSpaceOnUse">
<stop stop-color="#165B00"/>
<stop offset="1" stop-color="#175C01" stop-opacity="0.7"/>
</linearGradient>
<linearGradient id="paint26_linear_135_12281" x1="221.641" y1="303.209" x2="237.243" y2="284.876" gradientUnits="userSpaceOnUse">
<stop stop-color="#165B00"/>
<stop offset="1" stop-color="#175C01" stop-opacity="0.7"/>
</linearGradient>
<linearGradient id="paint27_linear_135_12281" x1="220.441" y1="294.017" x2="238.45" y2="294.017" gradientUnits="userSpaceOnUse">
<stop stop-color="#165B00"/>
<stop offset="1" stop-color="#175C01" stop-opacity="0.7"/>
</linearGradient>
<linearGradient id="paint28_linear_135_12281" x1="117.292" y1="144.2" x2="130.05" y2="144.2" gradientUnits="userSpaceOnUse">
<stop stop-color="#165B00"/>
<stop offset="1" stop-color="#175C01" stop-opacity="0.7"/>
</linearGradient>
<linearGradient id="paint29_linear_135_12281" x1="94.9056" y1="172.061" x2="114.718" y2="172.061" gradientUnits="userSpaceOnUse">
<stop stop-color="#165B00"/>
<stop offset="1" stop-color="#175C01" stop-opacity="0.7"/>
</linearGradient>
<linearGradient id="paint30_linear_135_12281" x1="94.8705" y1="149.683" x2="114.718" y2="149.683" gradientUnits="userSpaceOnUse">
<stop stop-color="#165B00"/>
<stop offset="1" stop-color="#175C01" stop-opacity="0.7"/>
</linearGradient>
<linearGradient id="paint31_linear_135_12281" x1="117.292" y1="164.377" x2="137.167" y2="164.377" gradientUnits="userSpaceOnUse">
<stop stop-color="#165B00"/>
<stop offset="1" stop-color="#175C01" stop-opacity="0.7"/>
</linearGradient>
<linearGradient id="paint32_linear_135_12281" x1="154.519" y1="125.126" x2="282.504" y2="125.126" gradientUnits="userSpaceOnUse">
<stop stop-color="#165B00"/>
<stop offset="1" stop-color="#175C01" stop-opacity="0.7"/>
</linearGradient>
<linearGradient id="paint33_linear_135_12281" x1="304.759" y1="148.325" x2="321.804" y2="148.325" gradientUnits="userSpaceOnUse">
<stop stop-color="#165B00"/>
<stop offset="1" stop-color="#175C01" stop-opacity="0.7"/>
</linearGradient>
<linearGradient id="paint34_linear_135_12281" x1="326.232" y1="173.33" x2="343.277" y2="173.33" gradientUnits="userSpaceOnUse">
<stop stop-color="#165B00"/>
<stop offset="1" stop-color="#175C01" stop-opacity="0.7"/>
</linearGradient>
<linearGradient id="paint35_linear_135_12281" x1="310.804" y1="160.828" x2="336.16" y2="160.828" gradientUnits="userSpaceOnUse">
<stop stop-color="#165B00"/>
<stop offset="1" stop-color="#175C01" stop-opacity="0.7"/>
</linearGradient>
<linearGradient id="paint36_linear_135_12281" x1="213.25" y1="148.4" x2="232.854" y2="148.4" gradientUnits="userSpaceOnUse">
<stop stop-color="#165B00"/>
<stop offset="1" stop-color="#175C01" stop-opacity="0.7"/>
</linearGradient>
<linearGradient id="paint37_linear_135_12281" x1="191.089" y1="159.905" x2="225.654" y2="159.905" gradientUnits="userSpaceOnUse">
<stop stop-color="#165B00"/>
<stop offset="1" stop-color="#175C01" stop-opacity="0.7"/>
</linearGradient>
<linearGradient id="paint38_linear_135_12281" x1="191.089" y1="159.905" x2="225.654" y2="159.905" gradientUnits="userSpaceOnUse">
<stop stop-color="#165B00"/>
<stop offset="1" stop-color="#175C01" stop-opacity="0.7"/>
</linearGradient>
<linearGradient id="paint39_linear_135_12281" x1="183.196" y1="146.078" x2="200.842" y2="146.078" gradientUnits="userSpaceOnUse">
<stop stop-color="#165B00"/>
<stop offset="1" stop-color="#175C01" stop-opacity="0.7"/>
</linearGradient>
<linearGradient id="paint40_linear_135_12281" x1="202.537" y1="136.653" x2="220.573" y2="136.653" gradientUnits="userSpaceOnUse">
<stop stop-color="#165B00"/>
<stop offset="1" stop-color="#175C01" stop-opacity="0.7"/>
</linearGradient>
<linearGradient id="paint41_linear_135_12281" x1="224.205" y1="172.667" x2="269.496" y2="172.667" gradientUnits="userSpaceOnUse">
<stop stop-color="#165B00"/>
<stop offset="1" stop-color="#175C01" stop-opacity="0.7"/>
</linearGradient>
<linearGradient id="paint42_linear_135_12281" x1="225.346" y1="172.588" x2="270.63" y2="172.588" gradientUnits="userSpaceOnUse">
<stop stop-color="#165B00"/>
<stop offset="1" stop-color="#175C01" stop-opacity="0.7"/>
</linearGradient>
<linearGradient id="paint43_linear_135_12281" x1="224.604" y1="185.824" x2="266.716" y2="185.824" gradientUnits="userSpaceOnUse">
<stop stop-color="#165B00"/>
<stop offset="1" stop-color="#175C01" stop-opacity="0.7"/>
</linearGradient>
<linearGradient id="paint44_linear_135_12281" x1="204.142" y1="185.749" x2="226.204" y2="185.749" gradientUnits="userSpaceOnUse">
<stop stop-color="#165B00"/>
<stop offset="1" stop-color="#175C01" stop-opacity="0.7"/>
</linearGradient>
<linearGradient id="paint45_linear_135_12281" x1="223.99" y1="253.182" x2="239.866" y2="253.182" gradientUnits="userSpaceOnUse">
<stop stop-color="#165B00"/>
<stop offset="1" stop-color="#175C01" stop-opacity="0.7"/>
</linearGradient>
<linearGradient id="paint46_linear_135_12281" x1="258.562" y1="238" x2="273.999" y2="238" gradientUnits="userSpaceOnUse">
<stop stop-color="#165B00"/>
<stop offset="1" stop-color="#175C01" stop-opacity="0.7"/>
</linearGradient>
<clipPath id="clip0_135_12281">
<rect width="439.3" height="439.3" fill="white" transform="translate(0.5)"/>
</clipPath>
</defs>
</svg>
