<svg width="138" height="33" viewBox="0 0 138 33" fill="none" xmlns="http://www.w3.org/2000/svg">
<path d="M2 32.5V16.5V1.5H22C22 1.5 29 4 28.5 12C28 20 21 21 21 21M22 16H21M21 21H12V31.5H6.5V6.5H21V12H12V16H21M21 21V16" stroke="black" stroke-width="2.5"/>
<path d="M41.631 20.9102V18.4727H45.9318C47.0256 18.4727 47.8693 18.1953 48.4631 17.6406C49.0646 17.0781 49.3654 16.2891 49.3654 15.2734V15.25C49.3654 14.2266 49.0646 13.4375 48.4631 12.8828C47.8693 12.3281 47.0256 12.0508 45.9318 12.0508H41.631V9.58984H46.6818C47.8224 9.58984 48.8224 9.82422 49.6818 10.293C50.549 10.7617 51.2248 11.4219 51.7092 12.2734C52.1935 13.1172 52.4357 14.1055 52.4357 15.2383V15.2617C52.4357 16.3867 52.1935 17.375 51.7092 18.2266C51.2248 19.0703 50.549 19.7305 49.6818 20.207C48.8224 20.6758 47.8224 20.9102 46.6818 20.9102H41.631ZM40.131 26.5V9.58984H43.1428V26.5H40.131ZM57.3693 26.7109C56.5412 26.7109 55.8146 26.5547 55.1896 26.2422C54.5646 25.9219 54.0764 25.4805 53.7248 24.918C53.3732 24.3477 53.1974 23.6914 53.1974 22.9492V22.9258C53.1974 22.1836 53.381 21.5469 53.7482 21.0156C54.1232 20.4766 54.6623 20.0547 55.3654 19.75C56.0764 19.4375 56.9318 19.25 57.9318 19.1875L62.6896 18.9062V20.8281L58.3537 21.1094C57.6193 21.1484 57.0568 21.3164 56.6662 21.6133C56.2834 21.9102 56.092 22.3086 56.092 22.8086V22.832C56.092 23.3398 56.2873 23.7422 56.6779 24.0391C57.0764 24.3359 57.5959 24.4844 58.2365 24.4844C58.799 24.4844 59.3029 24.3711 59.7482 24.1445C60.1935 23.918 60.5451 23.6094 60.8029 23.2188C61.0607 22.8203 61.1896 22.375 61.1896 21.8828V18.0859C61.1896 17.4609 60.9904 16.9727 60.592 16.6211C60.2014 16.2617 59.631 16.082 58.881 16.082C58.1935 16.082 57.6428 16.2227 57.2287 16.5039C56.8146 16.7773 56.5529 17.1406 56.4435 17.5938L56.4201 17.6875H53.7131L53.7248 17.5586C53.7951 16.8242 54.0451 16.1719 54.4748 15.6016C54.9123 15.0312 55.5139 14.582 56.2795 14.2539C57.0451 13.918 57.9474 13.75 58.9865 13.75C60.0412 13.75 60.9474 13.9219 61.7053 14.2656C62.4709 14.6094 63.0607 15.0938 63.4748 15.7188C63.8967 16.3438 64.1076 17.0781 64.1076 17.9219V26.5H61.1896V24.6133H61.1076C60.8732 25.043 60.5646 25.418 60.1818 25.7383C59.8068 26.0508 59.381 26.293 58.9045 26.4648C58.4279 26.6289 57.9162 26.7109 57.3693 26.7109ZM66.6623 26.5V14.0078H69.5685V16.1172H69.6623C69.8576 15.3828 70.2092 14.8086 70.717 14.3945C71.2248 13.9727 71.8498 13.7617 72.592 13.7617C72.7873 13.7617 72.967 13.7734 73.131 13.7969C73.3029 13.8203 73.4474 13.8477 73.5646 13.8789V16.5156C73.424 16.4609 73.2443 16.4219 73.0256 16.3984C72.8146 16.3672 72.5842 16.3516 72.3342 16.3516C71.7639 16.3516 71.2717 16.4648 70.8576 16.6914C70.4435 16.918 70.1232 17.25 69.8967 17.6875C69.6779 18.1172 69.5685 18.6367 69.5685 19.2461V26.5H66.6623ZM80.2795 26.7461C79.0451 26.7461 77.9748 26.4883 77.0685 25.9727C76.1701 25.4492 75.4709 24.7031 74.9709 23.7344C74.4787 22.7578 74.2326 21.5977 74.2326 20.2539V20.2305C74.2326 18.8945 74.4826 17.7422 74.9826 16.7734C75.4826 15.8047 76.1857 15.0586 77.092 14.5352C77.9982 14.0117 79.0568 13.75 80.2678 13.75C81.4865 13.75 82.549 14.0117 83.4553 14.5352C84.3615 15.0586 85.0646 15.8047 85.5646 16.7734C86.0646 17.7344 86.3146 18.8867 86.3146 20.2305V20.2539C86.3146 21.6055 86.0646 22.7656 85.5646 23.7344C85.0724 24.7031 84.3732 25.4492 83.467 25.9727C82.5685 26.4883 81.506 26.7461 80.2795 26.7461ZM80.2795 24.3906C80.9123 24.3906 81.4553 24.2305 81.9084 23.9102C82.3615 23.582 82.7131 23.1094 82.9631 22.4922C83.2131 21.875 83.3381 21.1289 83.3381 20.2539V20.2305C83.3381 19.3633 83.2131 18.625 82.9631 18.0156C82.7131 17.3984 82.3576 16.9297 81.8967 16.6094C81.4357 16.2812 80.8928 16.1172 80.2678 16.1172C79.6506 16.1172 79.1115 16.2812 78.6506 16.6094C78.1896 16.9297 77.8342 17.3984 77.5842 18.0156C77.3342 18.625 77.2092 19.3633 77.2092 20.2305V20.2539C77.2092 21.1289 77.3342 21.875 77.5842 22.4922C77.8342 23.1094 78.1896 23.582 78.6506 23.9102C79.1115 24.2305 79.6545 24.3906 80.2795 24.3906ZM89.2209 26.5V16.2578H87.4514V14.0078H89.2209V12.8008C89.2209 11.9883 89.3576 11.3164 89.631 10.7852C89.9045 10.2539 90.3264 9.85938 90.8967 9.60156C91.4748 9.33594 92.217 9.20312 93.1232 9.20312C93.4123 9.20312 93.6974 9.21484 93.9787 9.23828C94.2599 9.26172 94.4943 9.29297 94.6818 9.33203V11.3711C94.5646 11.3477 94.4279 11.332 94.2717 11.3242C94.1154 11.3164 93.9514 11.3125 93.7795 11.3125C93.1935 11.3125 92.7639 11.4492 92.4904 11.7227C92.217 11.9883 92.0803 12.3828 92.0803 12.9062V14.0078H94.6349V16.2578H92.1389V26.5H89.2209ZM100.94 26.7461C100.026 26.7461 99.2443 26.5625 98.5959 26.1953C97.9553 25.8203 97.467 25.2852 97.131 24.5898C96.8029 23.8867 96.6389 23.0508 96.6389 22.082V14.0078H99.5568V21.4844C99.5568 22.3906 99.7599 23.0859 100.166 23.5703C100.58 24.0547 101.205 24.2969 102.041 24.2969C102.471 24.2969 102.854 24.2266 103.19 24.0859C103.533 23.9375 103.826 23.7305 104.069 23.4648C104.319 23.1914 104.506 22.8711 104.631 22.5039C104.756 22.1289 104.819 21.7109 104.819 21.25V14.0078H107.737V26.5H104.819V24.5547H104.737C104.518 25 104.233 25.3867 103.881 25.7148C103.529 26.043 103.108 26.2969 102.615 26.4766C102.123 26.6562 101.565 26.7461 100.94 26.7461ZM110.326 26.5V14.0078H113.233V15.9531H113.326C113.647 15.2812 114.123 14.7461 114.756 14.3477C115.389 13.9492 116.174 13.75 117.112 13.75C118.487 13.75 119.549 14.1641 120.299 14.9922C121.049 15.8203 121.424 16.9609 121.424 18.4141V26.5H118.506V19.0234C118.506 18.1172 118.299 17.4219 117.885 16.9375C117.471 16.4531 116.842 16.2109 115.998 16.2109C115.436 16.2109 114.947 16.3398 114.533 16.5977C114.119 16.8477 113.799 17.1992 113.572 17.6523C113.346 18.1055 113.233 18.6367 113.233 19.2461V26.5H110.326ZM128.561 26.7461C127.514 26.7461 126.604 26.4844 125.83 25.9609C125.057 25.4297 124.459 24.6797 124.037 23.7109C123.615 22.7422 123.404 21.5898 123.404 20.2539V20.2422C123.404 18.9062 123.615 17.7539 124.037 16.7852C124.459 15.8164 125.053 15.0703 125.819 14.5469C126.592 14.0234 127.502 13.7617 128.549 13.7617C129.143 13.7617 129.69 13.8594 130.19 14.0547C130.69 14.2422 131.131 14.5117 131.514 14.8633C131.897 15.2148 132.205 15.6328 132.44 16.1172H132.522V9.4375H135.44V26.5H132.522V24.4141H132.44C132.205 24.8984 131.897 25.3125 131.514 25.6562C131.139 26 130.701 26.2695 130.201 26.4648C129.709 26.6523 129.162 26.7461 128.561 26.7461ZM129.44 24.2852C130.057 24.2852 130.596 24.1211 131.057 23.793C131.526 23.4648 131.889 23 132.147 22.3984C132.404 21.7891 132.533 21.0742 132.533 20.2539V20.2422C132.533 19.4219 132.401 18.7109 132.135 18.1094C131.877 17.5078 131.518 17.043 131.057 16.7148C130.596 16.3867 130.057 16.2227 129.44 16.2227C128.815 16.2227 128.272 16.3867 127.811 16.7148C127.35 17.0352 126.994 17.4961 126.744 18.0977C126.494 18.6914 126.369 19.4062 126.369 20.2422V20.2539C126.369 21.082 126.494 21.8008 126.744 22.4102C126.994 23.0117 127.35 23.4766 127.811 23.8047C128.272 24.125 128.815 24.2852 129.44 24.2852Z" fill="black"/>
</svg>
