<svg width="1170" height="219" viewBox="0 0 1170 219" fill="none" xmlns="http://www.w3.org/2000/svg">
<path d="M19.5 145.127V114.658H72.6738C86.3457 114.658 96.8926 111.191 104.314 104.258C111.834 97.2266 115.594 87.3633 115.594 74.668V74.375C115.594 61.582 111.834 51.7187 104.314 44.7852C96.8926 37.8516 86.3457 34.3848 72.6738 34.3848H19.5V3.62305H82.0488C96.3066 3.62305 108.807 6.55273 119.549 12.4121C130.389 18.2715 138.836 26.5234 144.891 37.168C150.945 47.7148 153.973 60.0684 153.973 74.2285V74.5215C153.973 88.584 150.945 100.938 144.891 111.582C138.836 122.129 130.389 130.381 119.549 136.338C108.807 142.197 96.3066 145.127 82.0488 145.127H19.5ZM0.603516 215V3.62305H38.3965V215H0.603516ZM212.42 217.637C202.166 217.637 193.084 215.684 185.174 211.777C177.361 207.773 171.258 202.256 166.863 195.225C162.566 188.096 160.418 179.941 160.418 170.762V170.469C160.418 161.191 162.713 153.281 167.303 146.738C171.99 140.098 178.729 134.873 187.518 131.064C196.307 127.158 206.951 124.814 219.451 124.033L278.777 120.371V144.541L224.578 147.91C215.594 148.496 208.709 150.645 203.924 154.355C199.139 158.066 196.746 162.998 196.746 169.15V169.297C196.746 175.645 199.139 180.674 203.924 184.385C208.807 187.998 215.252 189.805 223.26 189.805C230.291 189.805 236.541 188.389 242.01 185.557C247.576 182.725 251.971 178.867 255.193 173.984C258.416 169.102 260.027 163.584 260.027 157.432V110.85C260.027 103.037 257.537 96.8848 252.557 92.3926C247.674 87.8027 240.594 85.5078 231.316 85.5078C222.723 85.5078 215.838 87.3633 210.662 91.0742C205.486 94.6875 202.264 99.375 200.994 105.137L200.701 106.455H167.01L167.156 104.697C167.938 95.5176 171.014 87.3145 176.385 80.0879C181.756 72.7637 189.178 67.002 198.65 62.8027C208.221 58.6035 219.549 56.5039 232.635 56.5039C245.623 56.5039 256.854 58.6523 266.326 62.9492C275.896 67.2461 283.27 73.252 288.445 80.9668C293.719 88.6816 296.355 97.7637 296.355 108.213V215H260.027V191.123H259.148C256.219 196.494 252.41 201.182 247.723 205.186C243.035 209.189 237.664 212.266 231.609 214.414C225.652 216.562 219.256 217.637 212.42 217.637ZM325.945 215V59.7266H362.273V86.5332H363.152C365.496 77.1582 369.744 69.834 375.896 64.5605C382.146 59.1895 389.764 56.5039 398.748 56.5039C400.994 56.5039 403.143 56.6504 405.193 56.9434C407.244 57.2363 408.953 57.5781 410.32 57.9688V90.9277C408.855 90.3418 406.756 89.8535 404.021 89.4629C401.385 89.0723 398.504 88.877 395.379 88.877C388.543 88.877 382.635 90.293 377.654 93.125C372.674 95.8594 368.865 99.9121 366.229 105.283C363.592 110.654 362.273 117.197 362.273 124.912V215H325.945ZM491.912 218.076C476.678 218.076 463.445 214.854 452.215 208.408C440.984 201.865 432.244 192.588 425.994 180.576C419.842 168.467 416.766 154.062 416.766 137.363V137.07C416.766 120.469 419.891 106.162 426.141 94.1504C432.391 82.041 441.131 72.7637 452.361 66.3184C463.592 59.7754 476.727 56.5039 491.766 56.5039C506.902 56.5039 520.086 59.7754 531.316 66.3184C542.645 72.7637 551.434 81.9922 557.684 94.0039C563.934 106.016 567.059 120.371 567.059 137.07V137.363C567.059 154.16 563.934 168.613 557.684 180.723C551.531 192.734 542.84 201.963 531.609 208.408C520.379 214.854 507.146 218.076 491.912 218.076ZM492.059 188.633C499.773 188.633 506.463 186.631 512.127 182.627C517.791 178.623 522.137 172.812 525.164 165.195C528.289 157.48 529.852 148.203 529.852 137.363V137.07C529.852 126.328 528.289 117.148 525.164 109.531C522.039 101.914 517.596 96.1035 511.834 92.0996C506.17 88.0957 499.48 86.0938 491.766 86.0938C484.246 86.0938 477.605 88.0957 471.844 92.0996C466.18 96.1035 461.736 101.914 458.514 109.531C455.389 117.148 453.826 126.328 453.826 137.07V137.363C453.826 148.203 455.389 157.48 458.514 165.195C461.736 172.812 466.18 178.623 471.844 182.627C477.605 186.631 484.344 188.633 492.059 188.633ZM600.604 215V87.8516H579.363V59.7266H600.604V44.9316C600.604 34.7754 602.264 26.4258 605.584 19.8828C609.002 13.3398 614.227 8.50586 621.258 5.38086C628.289 2.1582 637.42 0.546875 648.65 0.546875C652.264 0.546875 655.828 0.693359 659.344 0.986328C662.957 1.2793 665.887 1.62109 668.133 2.01172V27.5C666.57 27.3047 664.812 27.1582 662.859 27.0605C661.004 26.8652 659.1 26.7676 657.146 26.7676C650.018 26.7676 644.744 28.3789 641.326 31.6016C638.006 34.8242 636.346 39.6094 636.346 45.957V59.7266H667.547V87.8516H637.078V215H600.604ZM744.451 218.076C733.025 218.076 723.309 215.781 715.301 211.191C707.391 206.504 701.336 199.814 697.137 191.123C692.938 182.432 690.838 172.129 690.838 160.215V59.7266H727.166V152.891C727.166 163.926 729.754 172.471 734.93 178.525C740.105 184.482 747.918 187.461 758.367 187.461C763.543 187.461 768.23 186.582 772.43 184.824C776.727 182.969 780.389 180.381 783.416 177.061C786.443 173.74 788.738 169.785 790.301 165.195C791.863 160.508 792.645 155.332 792.645 149.668V59.7266H829.119V215H792.645V190.684H791.912C789.178 196.152 785.613 200.986 781.219 205.186C776.824 209.287 771.551 212.461 765.398 214.707C759.246 216.953 752.264 218.076 744.451 218.076ZM859.148 215V59.7266H895.477V84.043H896.355C900.359 75.6445 906.316 68.9551 914.227 63.9746C922.234 58.9941 932.098 56.5039 943.816 56.5039C960.906 56.5039 974.09 61.6797 983.367 72.0312C992.742 82.3828 997.43 96.543 997.43 114.512V215H960.955V121.836C960.955 110.801 958.367 102.305 953.191 96.3477C948.016 90.293 940.252 87.2656 929.9 87.2656C922.967 87.2656 916.912 88.877 911.736 92.0996C906.561 95.2246 902.557 99.6191 899.725 105.283C896.893 110.85 895.477 117.393 895.477 124.912V215H859.148ZM1084.44 218.076C1071.36 218.076 1059.98 214.854 1050.31 208.408C1040.74 201.865 1033.32 192.539 1028.04 180.43C1022.87 168.32 1020.28 153.965 1020.28 137.363V137.217C1020.28 120.518 1022.92 106.162 1028.19 94.1504C1033.46 82.041 1040.89 72.7637 1050.46 66.3184C1060.03 59.7754 1071.31 56.5039 1084.29 56.5039C1091.72 56.5039 1098.5 57.7246 1104.66 60.166C1110.91 62.5098 1116.42 65.9277 1121.21 70.4199C1125.99 74.8145 1129.85 80.1367 1132.78 86.3867H1133.66V3.62305H1169.99V215H1133.66V188.633H1132.78C1129.95 194.785 1126.14 200.059 1121.36 204.453C1116.67 208.75 1111.2 212.119 1104.95 214.561C1098.8 216.904 1091.96 218.076 1084.44 218.076ZM1095.43 187.461C1102.95 187.461 1109.59 185.41 1115.35 181.309C1121.11 177.207 1125.6 171.396 1128.83 163.877C1132.05 156.357 1133.66 147.52 1133.66 137.363V137.217C1133.66 127.061 1132 118.271 1128.68 110.85C1125.46 103.33 1120.96 97.5195 1115.2 93.418C1109.54 89.3164 1102.95 87.2656 1095.43 87.2656C1087.62 87.2656 1080.83 89.3164 1075.07 93.418C1069.4 97.4219 1065.01 103.135 1061.88 110.557C1058.86 117.979 1057.34 126.865 1057.34 137.217V137.363C1057.34 147.617 1058.86 156.504 1061.88 164.023C1065.01 171.543 1069.4 177.354 1075.07 181.455C1080.83 185.459 1087.62 187.461 1095.43 187.461Z" fill="url(#paint0_linear_135_13703)"/>
<defs>
<linearGradient id="paint0_linear_135_13703" x1="-18" y1="108" x2="1186" y2="108" gradientUnits="userSpaceOnUse">
<stop stop-color="#165B00"/>
<stop offset="1" stop-color="#175C01" stop-opacity="0.7"/>
</linearGradient>
</defs>
</svg>
